<svg width="134" height="134" viewBox="0 0 134 134" fill="none" xmlns="http://www.w3.org/2000/svg">
<path d="M114.083 19.9167C107.916 13.7071 100.58 8.77967 92.4992 5.41859C84.4183 2.0575 75.752 0.329205 67 0.333332C30.1667 0.333332 0.416687 30.1667 0.416687 67C0.416687 103.833 30.1667 133.667 67 133.667C98.0833 133.667 124 112.417 131.417 83.6667H114.083C110.651 93.4126 104.278 101.853 95.8445 107.824C87.4112 113.794 77.3329 117 67 117C39.4167 117 17 94.5833 17 67C17 39.4167 39.4167 17 67 17C80.8333 17 93.1667 22.75 102.167 31.8333L75.3333 58.6667H133.667V0.333332L114.083 19.9167Z" fill="black"/>
</svg>
